<svg xmlns="http://www.w3.org/2000/svg" xmlns:xlink="http://www.w3.org/1999/xlink" width="40" height="40" version="1.1" viewBox="0 0 40 40"><desc>Created with Sketch.</desc><defs><circle id="path-1" cx="20" cy="20" r="20"/></defs><g id="Artboard" fill="none" fill-rule="evenodd" stroke="none" stroke-width="1"><g id="avatar-coder"><g id="Avatar-Copy-7"><use fill="#55A5FF" fill-rule="evenodd" xlink:href="#path-1"/><circle cx="20" cy="20" r="18.5" stroke="#FFF" stroke-width="3"/><circle cx="20" cy="20" r="19.5" stroke="#0681FF" stroke-width="1"/></g><path id="Shape" fill="#FFF" d="M28,14 L28,12 L22,12 L22,14 L24,14 L24,16 L16,16 L16,14 L18,14 L18,12 L12,12 L12,14 L14,14 L14,16 L12,16 L12,28 L28,28 L28,16 L26,16 L26,14 L28,14 L28,14 Z M22,19 C22.6,19 23,19.4 23,20 C23,20.6 22.6,21 22,21 C21.4,21 21,20.6 21,20 C21,19.4 21.4,19 22,19 L22,19 Z M18,19 C18.6,19 19,19.4 19,20 C19,20.6 18.6,21 18,21 C17.4,21 17,20.6 17,20 C17,19.4 17.4,19 18,19 L18,19 Z M24,25 L16,25 L16,23 L24,23 L24,25 L24,25 Z"/></g></g></svg>