<svg xmlns="http://www.w3.org/2000/svg" xmlns:xlink="http://www.w3.org/1999/xlink" width="245" height="285" viewBox="0 0 245 285"><defs><path id="a" d="M83 64H27v25h56z"/><mask id="b" width="62" height="31" x="-3" y="-3"><path fill="#fff" d="M24 61h62v31H24z"/><use xlink:href="#a"/></mask></defs><ellipse cx="683" cy="573.5" fill="#DCDCE0" fill-rule="evenodd" opacity=".6" rx="180" ry="5.5" transform="translate(-573 -294)"/><g fill="none" fill-rule="evenodd" transform="translate(4)"><path stroke="#262628" stroke-linecap="round" stroke-linejoin="round" stroke-width="6" d="M112.003 135.499c0-12.065-.985-13.925 30.311-5.952 24.606 6.268 53.86 40.92 81.422 14.88 6.235-5.891 9.51-14.285 14.264-21.427M26.102 49C-23.24 73.885 4.964 121.048 48 131"/><path fill="#262628" d="M92 99h21v36H92zM65 191h21v87H65zM120 191h21v87h-21z"/><rect width="109" height="116" x="48" y="114" fill="#FB7D22" rx="7"/><circle cx="102.5" cy="145.5" r="3.5" fill="#292727"/><circle cx="102.5" cy="173.5" r="3.5" fill="#292727"/><circle cx="102.5" cy="201.5" r="3.5" fill="#292727"/><g fill="#FFF"><path d="M102.61 120.514c1.162-4.31-3.133-9.195-9.594-10.914-6.46-1.719-12.641.381-13.804 4.69-.604 2.238.275 4.016.275 6.38s-.88 4.697-.275 6.935c1.163 4.309 7.344 6.409 13.804 4.69 6.461-1.719 10.756-6.605 9.593-10.914a5.493 5.493 0 0 0-.136-.433c.05-.142.097-.287.136-.434zM105.38 120.514c-1.163-4.31 3.132-9.195 9.593-10.914 6.461-1.719 12.642.381 13.805 4.69.604 2.238-.275 4.016-.275 6.38s.879 4.697.275 6.935c-1.163 4.309-7.344 6.409-13.805 4.69-6.46-1.719-10.756-6.605-9.592-10.914.04-.147.085-.292.136-.433a5.493 5.493 0 0 1-.136-.434z"/><path d="M98.685 120.818a4.68 4.68 0 0 1-.637-2.363c0-2.611 2.132-4.728 4.762-4.728.867 0 1.68.23 2.38.633a4.767 4.767 0 0 1 2.381-.633c2.63 0 4.762 2.117 4.762 4.728a4.68 4.68 0 0 1-.637 2.363 4.68 4.68 0 0 1 .637 2.364c0 2.61-2.132 4.727-4.762 4.727-.867 0-1.68-.23-2.38-.632-.7.402-1.514.632-2.381.632-2.63 0-4.762-2.116-4.762-4.727 0-.861.232-1.668.637-2.364z"/></g><g fill="#FFF"><path d="M101.61 120.514c1.162-4.31-3.133-9.195-9.594-10.914-6.46-1.719-12.641.381-13.804 4.69-.604 2.238.275 4.016.275 6.38s-.88 4.697-.275 6.935c1.163 4.309 7.344 6.409 13.804 4.69 6.461-1.719 10.756-6.605 9.593-10.914a5.493 5.493 0 0 0-.136-.433c.05-.142.097-.287.136-.434zM104.38 120.514c-1.163-4.31 3.132-9.195 9.593-10.914 6.461-1.719 12.642.381 13.805 4.69.604 2.238-.275 4.016-.275 6.38s.879 4.697.275 6.935c-1.163 4.309-7.344 6.409-13.805 4.69-6.46-1.719-10.756-6.605-9.592-10.914.04-.147.085-.292.136-.433a5.493 5.493 0 0 1-.136-.434z"/><path d="M97.685 120.818a4.68 4.68 0 0 1-.637-2.363c0-2.611 2.132-4.728 4.762-4.728.867 0 1.68.23 2.38.633a4.767 4.767 0 0 1 2.381-.633c2.63 0 4.762 2.117 4.762 4.728a4.68 4.68 0 0 1-.637 2.363 4.68 4.68 0 0 1 .637 2.364c0 2.61-2.132 4.727-4.762 4.727-.867 0-1.68-.23-2.38-.632-.7.402-1.514.632-2.381.632-2.63 0-4.762-2.116-4.762-4.727 0-.861.232-1.668.637-2.364z"/></g><g transform="translate(48)"><path stroke="#262628" stroke-linecap="round" stroke-linejoin="round" stroke-width="6" d="M22 25V13M87 25V13"/><rect width="109" height="80" y="24" fill="#FB7D22" rx="4"/><rect width="22" height="13" x="11" fill="#FB7D22" rx="2"/><rect width="22" height="13" x="76" fill="#FB7D22" rx="2"/><use fill="#FEE3D0" xlink:href="#a"/><use stroke="#262628" stroke-linecap="round" stroke-linejoin="round" stroke-width="6" mask="url(#b)" xlink:href="#a"/><path stroke="#262628" stroke-linecap="round" stroke-linejoin="round" stroke-width="2" d="M41 89V64M55 89V64M69 89V64M83 77H27"/><path fill="#262628" d="M47 46a7 7 0 1 0-14 0 7 7 0 0 0 14 0zM75 46a7 7 0 1 0-14 0 7 7 0 0 0 14 0z"/><rect width="6" height="6" x="37" y="43" fill="#FFF" rx="3"/><rect width="6" height="6" x="65" y="43" fill="#FFF" rx="3"/></g><rect width="7" height="14" x="61" y="267" fill="#262628" rx="3.5"/><rect width="7" height="14" x="116" y="267" fill="#262628" rx="3.5"/><rect width="7" height="14" x="82" y="267" fill="#262628" rx="3.5"/><rect width="7" height="14" x="137" y="267" fill="#262628" rx="3.5"/></g></svg>