<svg xmlns="http://www.w3.org/2000/svg" xmlns:xlink="http://www.w3.org/1999/xlink" id="Layer_1" width="16" height="16" x="0" y="0" enable-background="new 0 0 16 16" version="1.1" viewBox="0 0 16 16" xml:space="preserve"><path d="M12.707,4.293l-1.414,1.414L13.586,8l-2.293,2.293l1.414,1.414l3-3c0.391-0.391,0.391-1.023,0-1.414L12.707,4.293z"/><path d="M3.293,11.707l1.414-1.414L2.414,8l2.293-2.293L3.293,4.293l-3,3c-0.391,0.391-0.391,1.023,0,1.414L3.293,11.707z"/><path d="M9.051,1.684l-4,12c-0.175,0.524,0.108,1.091,0.632,1.265C5.789,14.983,5.896,15,6,15c0.419,0,0.809-0.265,0.949-0.684l4-12	c0.175-0.524-0.108-1.091-0.632-1.265C9.791,0.876,9.226,1.16,9.051,1.684z"/></svg>