<svg xmlns="http://www.w3.org/2000/svg" xmlns:xlink="http://www.w3.org/1999/xlink" width="46" height="42" version="1.1" viewBox="0 0 46 42"><desc>Created with Sketch.</desc><g id="Speck" fill="none" fill-rule="evenodd" stroke="none" stroke-width="1"><g id="Specification-v2" fill="#37373C" transform="translate(-1010.000000, -2749.000000)"><path id="Combined-Shape" d="M1032.99976,2754.0545 L1015.99976,2769.5095 L1015.99976,2789.0005 C1015.99976,2790.1055 1016.89476,2791.0005 1017.99976,2791.0005 L1027.99976,2791.0005 C1028.55176,2791.0005 1028.99976,2790.5525 1028.99976,2790.0005 L1028.99976,2781.0005 L1036.99976,2781.0005 L1036.99976,2790.0005 C1036.99976,2790.5525 1037.44776,2791.0005 1037.99976,2791.0005 L1047.99976,2791.0005 C1049.10476,2791.0005 1049.99976,2790.1055 1049.99976,2789.0005 L1049.99976,2769.5095 L1032.99976,2754.0545 Z M1055.67276,2769.2595 L1033.67276,2749.2595 C1033.29176,2748.9135 1032.70776,2748.9135 1032.32676,2749.2595 L1021.99976,2758.6485 L1021.99976,2754.0005 C1021.99976,2753.4475 1021.55276,2753.0005 1020.99976,2753.0005 L1016.99976,2753.0005 C1016.44676,2753.0005 1015.99976,2753.4475 1015.99976,2754.0005 L1015.99976,2764.0005 C1015.99976,2764.0315 1016.01076,2764.0605 1016.01276,2764.0905 L1010.32676,2769.2595 C1009.91876,2769.6315 1009.88876,2770.2635 1010.25976,2770.6725 C1010.63176,2771.0815 1011.26576,2771.1105 1011.67276,2770.7395 L1032.99976,2751.3515 L1054.32676,2770.7405 C1054.51876,2770.9145 1054.75976,2771.0005 1054.99976,2771.0005 C1055.27076,2771.0005 1055.54276,2770.8905 1055.73976,2770.6735 C1056.11076,2770.2635 1056.08076,2769.6315 1055.67276,2769.2595 Z M1036.99976,2773.0005 C1036.99976,2773.5535 1036.55276,2774.0005 1035.99976,2774.0005 L1029.99976,2774.0005 C1029.44676,2774.0005 1028.99976,2773.5535 1028.99976,2773.0005 L1028.99976,2767.0005 C1028.99976,2766.4475 1029.44676,2766.0005 1029.99976,2766.0005 L1035.99976,2766.0005 C1036.55276,2766.0005 1036.99976,2766.4475 1036.99976,2767.0005 L1036.99976,2773.0005 Z"/></g></g></svg>