<svg xmlns="http://www.w3.org/2000/svg" xmlns:xlink="http://www.w3.org/1999/xlink" id="Layer_1" x="0" y="0" version="1.1" viewBox="-281 373 48 48" xml:space="preserve" style="enable-background:new -281 373 48 48"><style type="text/css">.st0,.st1{fill:none;stroke:#444;stroke-width:2;stroke-miterlimit:10}.st1{stroke-linecap:square}</style><switch><g><g transform="translate(0, 0)"><path d="M-239,384.4c2.5,3.6,4,7.9,4,12.6c0,12.2-9.8,22-22,22c-12.2,0-22-9.8-22-22s9.8-22,22-22 c4.7,0,9,1.4,12.5,3.9" class="st0"/><circle cx="-241" cy="381" r="4" class="st1"/><path d="M-257,397L-257,397c-2.2,0-4-1.8-4-4v-2c0-2.2,1.8-4,4-4l0,0c2.2,0,4,1.8,4,4v2 C-253,395.2-254.8,397-257,397z" class="st1"/><path d="M-249,405h-16v-1c0-2.8,2.2-5,5-5h6c2.8,0,5,2.2,5,5V405z" class="st1"/></g></g></switch></svg>