<svg xmlns="http://www.w3.org/2000/svg" xmlns:xlink="http://www.w3.org/1999/xlink" width="16" height="16" version="1.1" viewBox="0 0 16 16"><desc>Created with Sketch.</desc><g id="Notifications-Page" fill="none" fill-rule="evenodd" stroke="none" stroke-width="1"><g id="notification-updates" fill="#55A5FF"><path id="Shape" d="M8,0 C3.589,0 0,3.589 0,8 C0,12.411 3.589,16 8,16 C12.411,16 16,12.411 16,8 C16,3.589 12.411,0 8,0 Z M8,14 C4.691,14 2,11.309 2,8 C2,4.691 4.691,2 8,2 C11.309,2 14,4.691 14,8 C14,11.309 11.309,14 8,14 Z"/><polygon id="Shape" points="7 11.414 3.586 8 5 6.586 7 8.586 11 4.586 12.414 6"/></g></g></svg>