<svg xmlns="http://www.w3.org/2000/svg" xmlns:xlink="http://www.w3.org/1999/xlink" id="Layer_1" x="0" y="0" version="1.1" viewBox="-249 373 48 48" xml:space="preserve" style="enable-background:new -249 373 48 48"><style type="text/css">.st0{fill:none;stroke:#444;stroke-width:2}</style><desc>Created with Sketch.</desc><g id="Page-1"><g id="Noifications"><g id="Group" transform="translate(4.000000, 0.000000)"><path id="Shape" d="M-234.8,413.5v0.2c0,3.5,2.8,6.3,6.1,6.3c3.4,0,6.1-2.8,6.1-6.3v-0.2" class="st0"/><path id="Shape_1_" d="M-214.3,394.9v-6.3c0-8.2-6.4-14.6-14.3-14.6 c-8,0-14.3,6.5-14.3,14.6v6.3c0,7-6.1,8.6-6.1,12.5c0,3.4,7.9,6.3,20.5,6.3s20.5-2.8,20.5-6.3 C-208.2,403.5-214.3,401.9-214.3,394.9L-214.3,394.9z" class="st0"/></g></g></g></svg>