<svg xmlns="http://www.w3.org/2000/svg" xmlns:xlink="http://www.w3.org/1999/xlink" id="Layer_1" x="0" y="0" version="1.1" viewBox="-249 373 48 48" xml:space="preserve" style="enable-background:new -249 373 48 48"><style type="text/css">.st0{fill:none;stroke:#444;stroke-width:2}</style><desc>Created with Sketch.</desc><g id="Page-1"><g id="Payments"><g id="Group" transform="translate(1.000000, 0.000000)"><path id="Shape" d="M-239.8,384.5v-4.2c0-1.8,1.3-3.1,3.1-3.1l0,0c1.7,0,3.1,1.4,3.1,3.1 v4.2" class="st0"/><path id="Shape_1_" d="M-233.6,384.5v-5.2c0-1.8,1.3-3.1,3.1-3.1l0,0 c1.7,0,3.1,1.4,3.1,3.1v5.2" class="st0"/><path id="Shape_2_" d="M-221.3,384.5v-5.2c0-1.8,1.3-3.1,3.1-3.1l0,0 c1.7,0,3.1,1.4,3.1,3.1v5.2" class="st0"/><path id="Shape_3_" d="M-227.4,384.5v-7.3c0-1.8,1.3-3.1,3.1-3.1l0,0 c1.7,0,3.1,1.4,3.1,3.1v7.3" class="st0"/><path id="Shape_4_" d="M-222.2,404.3H-248v-19.9h44.1v19.9h-5.1" class="st0"/><ellipse id="Oval" cx="-226.4" cy="394.9" class="st0" rx="4.1" ry="4.2"/><path id="Shape_5_" d="M-235.7,389.7h-6.2" class="st0"/><path id="Shape_6_" d="M-239.8,404.3c0,8.7,6.9,15.7,15.4,15.7c8.5,0,15.4-7,15.4-15.7 v-13.6c-3.6,0-6.2,2.6-6.2,6.3v4.2c-4.8,0-9.2,3.9-9.2,8.4" class="st0"/></g></g></g></svg>