<svg xmlns="http://www.w3.org/2000/svg" xmlns:xlink="http://www.w3.org/1999/xlink" width="35" height="52" version="1.1" viewBox="0 0 35 52"><desc>Created with Sketch.</desc><g id="Create-Project" fill="none" fill-rule="evenodd" stroke="none" stroke-linecap="round" stroke-linejoin="round" stroke-width="1"><g id="Slices" stroke="#444" stroke-width="1.5" transform="translate(-337.000000, -526.000000)"><g id="phone" transform="translate(338.000000, 527.000000)"><path id="Stroke-4827" fill="#FFF" d="M29.7,50 L3.3,50 C1.47675,50 0,48.5083333 0,46.6666667 L0,3.33333333 C0,1.49166667 1.47675,0 3.3,0 L29.7,0 C31.52325,0 33,1.49166667 33,3.33333333 L33,46.6666667 C33,48.5083333 31.52325,50 29.7,50 L29.7,50 Z"/><path id="Stroke-4828" d="M14.85,43.3333333 C14.85,42.4133333 15.5892,41.6666667 16.5,41.6666667 C17.4108,41.6666667 18.15,42.4133333 18.15,43.3333333 C18.15,44.2533333 17.4108,45 16.5,45 C15.5892,45 14.85,44.2533333 14.85,43.3333333 L14.85,43.3333333 Z"/><path id="Stroke-4846" d="M0,36 L33,36"/><path id="Stroke-4847" d="M0,8 L33,8"/></g></g></g></svg>