<svg xmlns="http://www.w3.org/2000/svg" xmlns:xlink="http://www.w3.org/1999/xlink" width="32" height="32" version="1.1" viewBox="0 0 32 32"><desc>Created with Sketch.</desc><g id="project-menu-icons" fill="none" fill-rule="evenodd" stroke="none" stroke-linecap="square" stroke-width="1"><g id="product-qa-consulting" stroke-width="2"><g id="b-check" transform="translate(1.000000, 3.000000)"><circle id="Oval" cx="24" cy="15" r="3" fill="#FFF" stroke="#262628"/><circle id="Oval" cx="6" cy="15" r="3" fill="#FFF" stroke="#262628"/><path id="Shape" fill="#CEE6FF" stroke="#262628" d="M12,27 L12,24.017 C12,23.307 11.628,22.654 11.017,22.292 C10.044,21.717 8.358,21 6,21 C3.612,21 1.936,21.713 0.974,22.288 C0.368,22.65 0,23.301 0,24.007 L0,27 L12,27 Z"/><path id="Shape" fill="#CEF0AF" stroke="#262628" d="M30,27 L30,24.017 C30,23.307 29.628,22.654 29.017,22.292 C28.044,21.717 26.358,21 24,21 C21.612,21 19.936,21.713 18.974,22.288 C18.368,22.65 18,23.301 18,24.007 L18,27 L30,27 Z"/><polyline id="Shape" stroke="#0681FF" points="10 4 13 7 20 0"/></g></g></g></svg>