<svg xmlns="http://www.w3.org/2000/svg" xmlns:xlink="http://www.w3.org/1999/xlink" width="32" height="32" version="1.1" viewBox="0 0 32 32"><desc>Created with Sketch.</desc><g id="Symbols" fill="none" fill-rule="evenodd" stroke="none" stroke-width="1"><g id="product-website"><g id="design-32px-outline-2_browser-safari" transform="translate(1.000000, 1.000000)"><circle id="Oval" cx="15" cy="15" r="15" fill="#FFF" stroke="#3A3A3F" stroke-linecap="square" stroke-width="2"/><path id="Rectangle-3" fill="#3A3A3F" d="M14,0 L16,0 L16,4 L14,4 L14,0 Z M24.8994949,3.6862915 L26.3137085,5.10050506 L23.4852814,7.92893219 L22.0710678,6.51471863 L24.8994949,3.6862915 Z M30,14 L30,16 L26,16 L26,14 L30,14 Z M26.3137085,24.8994949 L24.8994949,26.3137085 L22.0710678,23.4852814 L23.4852814,22.0710678 L26.3137085,24.8994949 Z M16,30 L14,30 L14,26 L16,26 L16,30 Z M5.10050506,26.3137085 L3.6862915,24.8994949 L6.51471863,22.0710678 L7.92893219,23.4852814 L5.10050506,26.3137085 Z M2.22044605e-16,16 L-1.45349435e-16,14 L4,14 L4,16 L2.22044605e-16,16 Z M3.6862915,5.10050506 L5.10050506,3.6862915 L7.92893219,6.51471863 L6.51471863,7.92893219 L3.6862915,5.10050506 Z"/><polygon id="Shape" fill="#1A85FF" points="22 8 12 12 8 22 18 18"/></g></g></g></svg>