<svg xmlns="http://www.w3.org/2000/svg" xmlns:xlink="http://www.w3.org/1999/xlink" width="32" height="32" version="1.1" viewBox="0 0 32 32"><desc>Created with Sketch.</desc><g id="project-menu-icons" fill="none" fill-rule="evenodd" stroke="none" stroke-width="1"><g id="product-qa-os-automation"><g id="Group" transform="translate(1.000000, 4.000000)"><g id="Group-2"><path id="Combined-Shape" fill="#CEF0AF" d="M7.08570939,22.9508448 C2.90867596,21.0734666 0,16.8764121 0,12 C0,5.372583 5.372583,0 12,0 C18.627417,0 24,5.372583 24,12 C24,16.873366 21.0949567,21.0682229 16.9221167,22.947324 L14.2961494,16.0045833 C15.6820541,15.2082174 16.6153846,13.7131042 16.6153846,12 C16.6153846,9.45099346 14.5490065,7.38461538 12,7.38461538 C9.45099346,7.38461538 7.38461538,9.45099346 7.38461538,12 C7.38461538,13.7037931 8.30782771,15.1919584 9.68129255,15.9915361 L7.08570939,22.9508448 Z"/><path id="Combined-Shape" stroke="#262628" stroke-width="2" d="M16.9221167,22.947324 L14.2961494,16.0045833 C15.6820541,15.2082174 16.6153846,13.7131042 16.6153846,12 C16.6153846,9.45099346 14.5490065,7.38461538 12,7.38461538 C9.45099346,7.38461538 7.38461538,9.45099346 7.38461538,12 C7.38461538,13.7037931 8.30782771,15.1919584 9.68129255,15.9915361 L7.08570939,22.9508448 C2.90867596,21.0734666 0,16.8764121 0,12 C0,5.372583 5.372583,0 12,0 C18.627417,0 24,5.372583 24,12"/></g><g id="Group-20" stroke="#262628" stroke-linecap="square" stroke-width="2" transform="translate(20.000000, 15.000000)"><circle id="Oval" cx="5" cy="5" r="3"/><path id="Shape" d="M5,2 L5,0"/><path id="Shape" d="M7,2.415 L8.415,1"/><path id="Shape" d="M8,5 L10,5"/><path id="Shape" d="M7.2925,7 L8.7075,8.415"/><path id="Shape" d="M5,8 L5,10"/><path id="Shape" d="M2.415,7 L1,8.415"/><path id="Shape" d="M2,5 L0,5"/><path id="Shape" d="M2.415,2.415 L1,1"/></g></g></g></g></svg>