<svg xmlns="http://www.w3.org/2000/svg" xmlns:xlink="http://www.w3.org/1999/xlink" width="32" height="32" version="1.1" viewBox="0 0 32 32"><desc>Created with Sketch.</desc><g id="project-menu-icons" fill="none" fill-rule="evenodd" stroke="none" stroke-width="1"><g id="product-app-app"><g id="design-32px-outline_tablet-mobile" transform="translate(1.000000, 1.000000)"><rect id="Rectangle" width="27" height="22" x="0" y="0" fill="#FFF" stroke="#262628" stroke-width="2" rx="2"/><rect id="Rectangle-2" width="19" height="18" x="6" y="2" fill="#CFE6FF" rx=".5"/><polygon id="Shape" fill="#3A3A3F" fill-rule="nonzero" points="3 9 3 13 5 13 5 9"/><path id="Shape" fill="#FFF" stroke="#262628" stroke-linecap="square" stroke-width="2" d="M28,30 L22,30 C20.8136364,30 20,29.105 20,28 L20,14 C20,12.895 20.8136364,12 22,12 L28,12 C29.1863636,12 30,12.895 30,14 L30,28 C30,29.105 29.1863636,30 28,30 Z"/><path id="Shape" stroke="#3A3A3F" stroke-linecap="square" stroke-width="2" d="M24.4,26 L25.3333333,26"/></g></g></g></svg>