<svg xmlns="http://www.w3.org/2000/svg" xmlns:xlink="http://www.w3.org/1999/xlink" width="32" height="32" version="1.1" viewBox="0 0 32 32"><desc>Created with Sketch.</desc><g id="project-menu-icons" fill="none" fill-rule="evenodd" stroke="none" stroke-width="1"><g id="product-cat-qa"><g id="bug" transform="translate(1.000000, 1.000000)"><path id="Shape" stroke="#262628" stroke-width="2" d="M0,16 L4,16"/><path id="Shape" stroke="#262628" stroke-width="2" d="M4,4 L7.324,7.324"/><path id="Shape" stroke="#262628" stroke-width="2" d="M26,4 L22.676,7.324"/><path id="Shape" stroke="#262628" stroke-width="2" d="M3,29 L6.634,25.366"/><path id="Shape" stroke="#262628" stroke-width="2" d="M27,29 L23.365,25.365"/><path id="Shape" stroke="#262628" stroke-width="2" d="M26,16 L30,16"/><path id="Shape" stroke="#262628" stroke-width="2" d="M11.409,2.409 L9,0"/><path id="Shape" stroke="#262628" stroke-width="2" d="M18.591,2.409 L21,0"/><path id="Shape" fill="#FFF" stroke="#262628" stroke-width="2" d="M19.978,4.999 C23.552,7.181 26,11.64 26,16.786 C26,24.084 21.075,30 15,30 C8.925,30 4,24.084 4,16.786 C4,11.655 6.434,7.208 9.99,5.018"/><circle id="Oval" cx="11" cy="12" r="2" fill="#1A85FF"/><circle id="Oval" cx="19" cy="12" r="2" fill="#1A85FF"/><circle id="Oval" cx="10.5" cy="20.5" r="2.5" fill="#1A85FF"/><circle id="Oval" cx="19.5" cy="20.5" r="2.5" fill="#1A85FF"/><path id="Shape" fill="#FFF" stroke="#262628" stroke-linecap="square" stroke-width="2" d="M15,1 C12.401,1 10.294,2.828 9.962,5.183 C9.948,5.194 12.523,7.016 15,7.016 C17.477,7.016 20.052,5.194 20.038,5.184 C19.706,2.828 17.599,1 15,1 Z"/></g></g></g></svg>