<svg xmlns="http://www.w3.org/2000/svg" xmlns:xlink="http://www.w3.org/1999/xlink" width="32" height="32" version="1.1" viewBox="0 0 32 32"><desc>Created with Sketch.</desc><g id="project-menu-icons" fill="none" fill-rule="evenodd" stroke="none" stroke-linecap="square" stroke-width="1"><g id="product-cat-analytics" stroke-width="2"><g id="laptop-72" transform="translate(1.000000, 4.000000)"><path id="Shape" fill="#A3A3AD" stroke="#262628" d="M26,24 L4,24 C1.791,24 0,22.209 0,20 L0,20 L30,20 L30,20 C30,22.209 28.209,24 26,24 Z"/><path id="Shape" fill="#FFF" stroke="#262628" d="M3,20 L3,2 C3,0.895 3.895,0 5,0 L25,0 C26.105,0 27,0.895 27,2 L27,20 L3,20 Z"/><path id="Shape" stroke="#0681FF" d="M15,5 L15,14"/><path id="Shape" stroke="#FF5A4C" d="M9,12 L9,14"/><path id="Shape" stroke="#5CC900" d="M21,8 L21,14"/></g></g></g></svg>