<svg xmlns="http://www.w3.org/2000/svg" xmlns:xlink="http://www.w3.org/1999/xlink" width="32" height="32" version="1.1" viewBox="0 0 32 32"><desc>Created with Sketch.</desc><g id="project-menu-icons" fill="none" fill-rule="evenodd" stroke="none" stroke-width="1"><g id="product-cat-design"><g id="web-design" transform="translate(1.000000, 2.000000)"><rect id="Rectangle-5" width="27" height="5" x="0" y="2" fill="#CEE6FF"/><rect id="Rectangle-4" width="30" height="21" x="0" y="7" fill="#FFF"/><polyline id="Shape" stroke="#262628" stroke-width="2" points="30 10 30 28 0 28 0 2 25.003 2"/><path id="Shape" stroke="#262628" stroke-linecap="square" stroke-width="2" d="M6,2 L6,7"/><path id="Shape" stroke="#262628" stroke-width="2" d="M0,7 L20.003,7"/><path id="Shape" fill="#C3C3C8" stroke="#262628" stroke-linecap="square" stroke-width="2" d="M21.003,12 L18.003,9 L26.382,0.621 C27.21,-0.207 28.554,-0.207 29.382,0.621 L29.382,0.621 C30.21,1.449 30.21,2.793 29.382,3.621 L21.003,12 Z"/><path id="Shape" fill="#55A5FF" stroke="#262628" stroke-linecap="square" stroke-width="2" d="M12.91,12.874 C14.075,11.709 15.964,11.709 17.13,12.874 C18.296,14.039 18.295,15.929 17.13,17.094 C15.965,18.259 12.003,18 12.003,18 C12.003,18 11.894,13.89 12.91,12.874 Z"/></g></g></g></svg>