<svg xmlns="http://www.w3.org/2000/svg" xmlns:xlink="http://www.w3.org/1999/xlink" id="Layer_1" x="0" y="0" version="1.1" viewBox="-281 373 48 48" xml:space="preserve" style="enable-background:new -281 373 48 48"><style type="text/css">.st0,.st1{fill:none;stroke:#444;stroke-width:2;stroke-miterlimit:10}.st1{stroke-linecap:square}</style><switch><g><g transform="translate(0, 864)"><line x1="-242" x2="-246" y1="-473" y2="-469" class="st0"/><line x1="-272" x2="-268" y1="-473" y2="-469" class="st0"/><line x1="-257" x2="-257" y1="-481" y2="-475" class="st0"/><path d="M-262.1-454.8l-6.5,2.8c-1.4,0.6-2.4,2-2.4,3.6v3.4h28v-3.4c0-1.6-1-3-2.4-3.7l-6.5-2.8" class="st0"/><circle cx="-257" cy="-485" r="4" class="st1"/><circle cx="-239" cy="-476" r="4" class="st1"/><circle cx="-275" cy="-476" r="4" class="st1"/><path d="M-257-453L-257-453c-4.4,0-8-3.6-8-8v-2c0-4.4,3.6-8,8-8l0,0c4.4,0,8,3.6,8,8v2 C-249-456.6-252.6-453-257-453z" class="st1"/></g></g></switch></svg>