<svg xmlns="http://www.w3.org/2000/svg" xmlns:xlink="http://www.w3.org/1999/xlink" width="45" height="52" version="1.1" viewBox="0 0 45 52"><desc>Created with Sketch.</desc><g id="Create-Project" fill="none" fill-rule="evenodd" stroke="none" stroke-linecap="round" stroke-linejoin="round" stroke-width="1"><g id="Slices" stroke="#444" stroke-width="1.5" transform="translate(-490.000000, -526.000000)"><g id="tablet" transform="translate(491.000000, 527.000000)"><path id="Stroke-4835" fill="#FFF" d="M39.6923077,50 L3.30769231,50 C1.48019231,50 0,48.5083333 0,46.6666667 L0,3.33333333 C0,1.49166667 1.48019231,0 3.30769231,0 L39.6923077,0 C41.5198077,0 43,1.49166667 43,3.33333333 L43,46.6666667 C43,48.5083333 41.5198077,50 39.6923077,50 L39.6923077,50 Z"/><polygon id="Stroke-4836" points="36.385 36.667 6.615 36.667 6.615 8.333 36.385 8.333"/><path id="Stroke-4837" d="M19.8461538,43.3333333 C19.8461538,42.4133333 20.5870769,41.6666667 21.5,41.6666667 C22.4129231,41.6666667 23.1538462,42.4133333 23.1538462,43.3333333 C23.1538462,44.2533333 22.4129231,45 21.5,45 C20.5870769,45 19.8461538,44.2533333 19.8461538,43.3333333 L19.8461538,43.3333333 Z"/></g></g></g></svg>