<svg xmlns="http://www.w3.org/2000/svg" xmlns:xlink="http://www.w3.org/1999/xlink" id="Layer_1" width="32" height="32" x="0" y="0" enable-background="new 0 0 32 32" version="1.1" viewBox="0 0 32 32" xml:space="preserve"><path d="M2,3v26c0,1.7,1.3,3,3,3h22c1.7,0,3-1.3,3-3V3c0-1.7-1.3-3-3-3H5C3.3,0,2,1.3,2,3z M4,3c0-0.6,0.4-1,1-1h22c0.6,0,1,0.4,1,1	v26c0,0.6-0.4,1-1,1H5c-0.6,0-1-0.4-1-1V3z"/><path d="M7,24h18c0.6,0,1-0.4,1-1V6c0-0.6-0.4-1-1-1H7C6.4,5,6,5.4,6,6v17C6,23.6,6.4,24,7,24z M8,7h16v15H8V7z"/><circle cx="16" cy="27" r="2"/></svg>