<svg xmlns="http://www.w3.org/2000/svg" xmlns:xlink="http://www.w3.org/1999/xlink" id="Layer_1" width="48" height="48" x="0" y="0" enable-background="new 0 0 48 48" version="1.1" viewBox="0 0 48 48" xml:space="preserve"><path d="M42,1H6C3.2,1,1,3.2,1,6v28c0,2.8,2.2,5,5,5h11v6h-5c-0.6,0-1,0.4-1,1s0.4,1,1,1h24c0.6,0,1-0.4,1-1s-0.4-1-1-1h-5v-6h11	c2.8,0,5-2.2,5-5V6C47,3.2,44.8,1,42,1z M6,3h36c1.7,0,3,1.3,3,3v23H3V6C3,4.3,4.3,3,6,3z M29,45H19v-6h10V45z M42,37H6	c-1.7,0-3-1.3-3-3v-3h42v3C45,35.7,43.7,37,42,37z"/><path d="M22,9h4c0.6,0,1-0.4,1-1s-0.4-1-1-1h-4c-0.6,0-1,0.4-1,1S21.4,9,22,9z"/></svg>