<svg xmlns="http://www.w3.org/2000/svg" xmlns:xlink="http://www.w3.org/1999/xlink" id="Layer_1" width="16" height="16" x="0" y="0" enable-background="new 0 0 16 16" version="1.1" viewBox="0 0 16 16" xml:space="preserve"><path fill="#888894" d="M1,7h5c0.552,0,1-0.448,1-1V1c0-0.552-0.448-1-1-1H1C0.448,0,0,0.448,0,1v5C0,6.552,0.448,7,1,7z"/><path fill="#888894" d="M15,0h-5C9.448,0,9,0.448,9,1v5c0,0.552,0.448,1,1,1h5c0.552,0,1-0.448,1-1V1C16,0.448,15.552,0,15,0z"/><path fill="#888894" d="M1,16h5c0.552,0,1-0.448,1-1v-5c0-0.552-0.448-1-1-1H1c-0.552,0-1,0.448-1,1v5C0,15.552,0.448,16,1,16z"/><path fill="#888894" d="M15,9h-5c-0.552,0-1,0.448-1,1v5c0,0.552,0.448,1,1,1h5c0.552,0,1-0.448,1-1v-5C16,9.448,15.552,9,15,9z"/></svg>