<svg xmlns="http://www.w3.org/2000/svg" xmlns:xlink="http://www.w3.org/1999/xlink" width="16" height="16" x="0" y="0" version="1.1" viewBox="0 0 16 16" xml:space="preserve"><g fill="#888894" class="nc-icon-wrapper"><path fill="#888894" d="M5,5V1c0-0.6-0.4-1-1-1S3,0.4,3,1v4c0,0.6,0.4,1,1,1S5,5.6,5,5z"/><path fill="#888894" d="M1,11c0,1.3,0.9,2.4,2,2.8c0,0.1,0,0.1,0,0.2v1c0,0.6,0.4,1,1,1s1-0.4,1-1v-1c0-0.1,0-0.1,0-0.2 c1.2-0.4,2-1.5,2-2.8c0-1.7-1.3-3-3-3S1,9.3,1,11z"/><path fill="#888894" d="M11,11v4c0,0.6,0.4,1,1,1s1-0.4,1-1v-4c0-0.6-0.4-1-1-1S11,10.4,11,11z" data-color="color-2"/><path fill="#888894" d="M9,5c0,1.7,1.3,3,3,3s3-1.3,3-3c0-1.3-0.9-2.4-2-2.8c0-0.1,0-0.1,0-0.2V1c0-0.6-0.4-1-1-1 s-1,0.4-1,1v1c0,0.1,0,0.1,0,0.2C9.9,2.6,9,3.7,9,5z" data-color="color-2"/></g></svg>