<svg xmlns="http://www.w3.org/2000/svg" xmlns:xlink="http://www.w3.org/1999/xlink" width="16" height="16" version="1.1" viewBox="0 0 16 16"><desc>Created with Sketch.</desc><g id="Flows-&amp;-Components" fill="none" fill-rule="evenodd" stroke="none" stroke-width="1"><g id="Main-Components" fill="#888894" transform="translate(-926.000000, -91.000000)"><g id="add-members" transform="translate(893.000000, 69.000000)"><g id="Group-6" transform="translate(20.000000, 10.000000)"><path id="user-add" d="M20,21 C17.8,21 16,19.2 16,17 L16,16 C16,13.8 17.8,12 20,12 C22.2,12 24,13.8 24,16 L24,17 C24,19.2 22.2,21 20,21 Z M18,23 C15.2,23 13,25.2 13,28 L21,28 L21,23 L18,23 Z M27,22 L25,22 L25,24 L23,24 L23,26 L25,26 L25,28 L27,28 L27,26 L29,26 L29,24 L27,24 L27,22 Z"/></g></g></g></g></svg>