<svg xmlns="http://www.w3.org/2000/svg" xmlns:xlink="http://www.w3.org/1999/xlink" width="40" height="52" version="1.1" viewBox="0 0 40 52"><desc>Created with Sketch.</desc><g id="Create-Project" fill="none" fill-rule="evenodd" stroke="none" stroke-linecap="round" stroke-linejoin="round" stroke-width="1"><g id="Slices" stroke="#444" stroke-width="1.6" transform="translate(-842.000000, -526.000000)"><g id="watch-apple" transform="translate(843.000000, 527.000000)"><polyline id="Stroke-4797" fill="#FFF" points="6.727 8.333 8.409 0 25.227 0 26.909 8.333"/><polyline id="Stroke-4799" fill="#FFF" points="26.909 41.667 25.227 50 8.409 50 6.727 41.667"/><path id="Stroke-4801" fill="#FFF" d="M30.2727273,41.6666667 L3.36363636,41.6666667 C1.50522727,41.6666667 0,40.175 0,38.3333333 L0,11.6666667 C0,9.825 1.50522727,8.33333333 3.36363636,8.33333333 L30.2727273,8.33333333 C32.1311364,8.33333333 33.6363636,9.825 33.6363636,11.6666667 L33.6363636,38.3333333 C33.6363636,40.175 32.1311364,41.6666667 30.2727273,41.6666667 L30.2727273,41.6666667 Z"/><polyline id="Stroke-4803" points="34 15 37.364 15 37.364 21.667 34 21.667"/><polyline id="Stroke-4803" points="34 25 35 25 35 36 34 36"/><polyline id="Stroke-4821" points="16.818 16.667 16.818 25 25.227 25"/></g></g></g></svg>