<svg xmlns="http://www.w3.org/2000/svg" xmlns:xlink="http://www.w3.org/1999/xlink" width="41" height="52" version="1.1" viewBox="0 0 41 52"><desc>Created with Sketch.</desc><g id="Create-Project" fill="none" fill-rule="evenodd" stroke="none" stroke-linecap="round" stroke-linejoin="round" stroke-width="1"><g id="Slices" stroke="#444" stroke-width="1.5" transform="translate(-995.000000, -526.000000)"><g id="watch-android" transform="translate(996.000000, 527.000000)"><polyline id="Stroke-5216" fill="#FFF" points="9.764 8.404 9.764 0 26.157 0 26.157 8.404"/><polyline id="Stroke-5218" fill="#FFF" points="26.166 41.166 26.166 49.619 9.773 49.619 9.773 41.164"/><polygon id="Stroke-5220" fill="#FFF" points="36.066 21.311 38.643 21.311 38.643 27.869 36.066 27.869"/><path id="Stroke-5222" fill="#FFF" d="M0,24.5901639 C0,14.6311475 8.07377049,6.55737705 18.0327869,6.55737705 C27.9918033,6.55737705 36.0655738,14.6311475 36.0655738,24.5901639 C36.0655738,34.5491803 27.9918033,42.6229508 18.0327869,42.6229508 C8.07377049,42.6229508 0,34.5491803 0,24.5901639 L0,24.5901639 Z"/><polyline id="Stroke-5226" points="18.033 16.393 18.033 24.59 26.23 24.59"/></g></g></g></svg>